<?xml version="1.0" encoding="utf-8"?>
<!-- Generator: Adobe Illustrator 24.2.0, SVG Export Plug-In . SVG Version: 6.00 Build 0)  -->
<svg version="1.1" id="Layer_1" xmlns="http://www.w3.org/2000/svg" xmlns:xlink="http://www.w3.org/1999/xlink" x="0px" y="0px"
	 viewBox="0 0 383.4 114.5" style="enable-background:new 0 0 383.4 114.5;" xml:space="preserve">
<style type="text/css">
	.st0{fill:#FFFFFF;}
</style>
<path class="st0" d="M291.8,42.2l18.6-14.2c4.6-3.6,6.4-6,6.4-8.9c0-3.1-2.2-5-5.5-5c-3.3,0-6,1.9-9.9,6.4l-9.3-7.7
	c5.3-6.9,10.6-10.6,20.2-10.6c10.9,0,18.3,6.5,18.3,15.8v0.1c0,7.9-4.1,12.1-11.5,17.4l-8.5,6h20.5v11.2h-39.3V42.2z"/>
<path class="st0" d="M336.7,27.9v-0.1c0-14,8.9-25.8,23.1-25.8c14.1,0,22.9,11.6,22.9,25.7v0.1c0,14-8.9,25.8-23.1,25.8
	C345.4,53.6,336.7,42,336.7,27.9z M368.8,27.9v-0.1c0-7.9-3.8-13.6-9.2-13.6c-5.5,0-9.1,5.5-9.1,13.5v0.1c0,7.9,3.7,13.6,9.2,13.6
	C365.3,41.4,368.8,35.8,368.8,27.9z"/>
<path class="st0" d="M291.8,100l18.6-14.2c4.6-3.6,6.4-6,6.4-8.9c0-3.1-2.2-5-5.5-5c-3.3,0-6,1.9-9.9,6.4l-9.3-7.7
	c5.3-6.9,10.6-10.6,20.2-10.6c10.9,0,18.3,6.5,18.3,15.8v0.1c0,7.9-4.1,12.1-11.5,17.4l-8.5,6h20.5v11.2h-39.3V100z"/>
<path class="st0" d="M206.3,88.7c8.5,8.5,19.8,13.3,31.8,13.3c8.6,0,16.6-2.4,24.1-7.2L259,90c-6.6,4.3-13.4,6.4-20.9,6.4
	c-10.4,0-20.3-4.2-27.8-11.7c-1.8-1.8-3.3-3.7-4.7-5.7c0.1-0.1-3.7-5.2-3.7-5.2c-4,11-11.7,20.3-22.1,26.4
	c-7.8,4.5-16.3,6.7-25.4,6.7c-14.1,0-26.9-5.6-36.2-15.2l-1.8,5.8c3.1,2.8,6.5,5.4,10.2,7.5c8.8,5.1,18.1,7.7,27.8,7.7
	c19.7,0,38.1-10.7,48.3-28C203.8,86,205,87.4,206.3,88.7z M259.9,76.2c-10.1,6.6-15,8.5-21.9,8.5c-4.8,0-9.3-1.3-13.6-3.8
	c-7-4.2-12-11.2-13.6-18.9c-0.2-0.8-0.3-1.7-0.4-2.5c-0.1-0.8-0.1-2.2-0.1-2.2c0-0.2,0-0.4,0-0.6c0-3.9,0.8-7.7,2.3-11.2
	c0,0.1,0,0.1,0,0.2c0.4-1,0.9-1.9,1.4-2.9c5-8.6,14.4-13.7,24-13.7c6.1,0,11.5,1.8,16.1,5.1c0.8,0.5,5.3,4,5.3,4l10.7-12.6
	c0,0-4.3-3.8-6.1-5c-7.5-5.8-16.3-8.6-26-8.6c-11.5,0-22.2,4.3-30.8,12.2c0,0-1,0.8-1,0.9c-0.2,0.2-0.4,0.5-0.6,0.7
	c-5.3,5.9-9,12.6-10.9,19.8c-0.1,0.4-0.9,5.5-1,7.1c0,0.4-0.1,0.7-0.1,1.1l0,0c-0.1,3.9-0.3,8.8-0.7,10.5c0,0,0,0,0,0
	c-2.2,11-9.1,20.8-18.9,26.6c-6.1,3.7-12.6,5.4-19.8,5.4c-13.5,0-25.1-6.5-32.3-17l-2.2,6.9c3.3,3.8,7.3,7,11.8,9.6
	c7.2,4,14.7,6.1,22.7,6.1c16.1,0,31.5-8.8,39.3-22.7c2.4-4.2,4-8.7,4.9-13.5c0,0,0.1-0.1,0.1-0.1c0.1-0.5,0.2-1.3,0.3-2.2
	c0.1-0.4,0.1-1.5,0.1-1.5c0.2-2.5,0.3-5.3,0.3-6c0-0.7-0.1-3.1,0.3-6.4c1.2-6.6,4.1-12.7,8.5-18c0.5-0.6,1.9-2.1,2-2.2
	c7.5-7.6,17.4-11.6,27.8-11.6c7.8,0,13.8,1.6,22.8,7.3l1.3,1.1l-3.5,4.1c-0.4-0.2-0.7-0.4-1.1-0.7c-5.9-4-12.5-6.1-19.5-6.1
	c-6.2,0-11.8,1.4-16.8,4.3c-2.6,1.5-7.2,5.6-7.2,5.6c-4.9,5.2-8.1,11.9-9.1,18.9l0,0c0,0,0,0.1,0,0.1c-0.2,1.2-0.3,2.5-0.3,3.7
	c0,0-0.1,8.8,3.4,15.3c0,0,0,0,0,0c0,0,0,0,0,0c0.8,1.7,3,4.6,3,4.6c1.5,2.1,2.9,3.7,3.8,4.8c6.3,6.3,14.8,9.9,23.2,9.9
	c7.5,0,13.6-2.2,22.7-8l8.9,13.3c-11.7,7.7-20.8,10.9-31.6,10.9c-8.9,0-17.3-2.2-24.9-6.7c-4.1-2.4-7.8-5.3-11.1-8.7l-3.6,4.4
	c10.3,10.6,24.4,16.9,39.6,16.9c12.6,0,23.2-4,37.4-13.7l2.2-1.4l-15.2-22.8L259.9,76.2z M103.9,50.2l2.1-7l0,0
	c3.4-12.8,11.7-23.7,23.3-30.4c5.7-3.3,11.8-5.4,18.4-6.3c0.2,0,0.3,0,0.5-0.1c0.9-0.1,1.8-0.2,2.8-0.3c0.7,0,1.5-0.1,2.2-0.1
	c0.4,0,0.8,0,1.3,0c1,0,2,0,3,0.1c0.2,0,0.5,0,0.7,0.1c12.3,0.9,23.9,6.4,32.5,15.1l3.3-4.3c-3.4-3.5-7.3-6.5-11.7-9
	c-7.2-4.1-14.8-6.5-22.7-7.2v0c-0.4,0-0.7-0.1-1.1-0.1c-0.3,0-0.6,0-0.9-0.1c-1-0.1-2-0.1-3-0.1c0,0-0.1,0-0.1,0c0,0-0.1,0-0.1,0
	c-4.9,0-9.7,0.7-14.3,1.9l0,0.1c-14,3.9-26.4,13.2-33.9,26.1c-1.6,2.8-3.4,7.4-4.8,11l0,0l0,0.1c-0.4,1-0.7,1.9-0.9,2.7L103.9,50.2z
	 M115.4,50.2c2.2-9,9-21.8,19.4-27.8c6-3.5,12.5-5.2,19.7-5.3c13.1,0,25.5,6.6,32.8,17.5c0,0,0.4,0.6,0.4,0.6
	c0.3,0.5,0.6,0.9,0.9,1.4c0.6,1,1.7,2.9,2.2,4c0.1-0.4,0.2-0.8,0.4-1.3c0,0,2.4-5.2,3.9-7.8c2.3-4,5.1-7.5,8.3-10.6
	c9.2-8.8,21.5-14,34.6-14c12.6,0,24.6,4.6,33.7,13.1l1,0.8l1.3,1.3l4-4.2l-2.2-2.2c-10.2-9.1-23.6-14.4-37.7-14.4
	c-10.1,0-19.4,2.2-27.8,7.4c-12.4,7.6-17.7,16.3-19.8,19.8c0,0-6.7-8-12.8-11.2c-5.4-3-11.5-4.9-18-5.5v0c-0.2,0-0.4,0-0.7,0
	c-1.3-0.1-2.6-0.2-4-0.2c-0.1,0-0.5,0-0.5,0c0,0-0.5,0-0.7,0c-1.1,0-2.1,0.1-3.2,0.1c-0.7,0.1-1.4,0.1-2.1,0.2c-0.3,0-0.7,0.1-1,0.1
	c-4,0.5-11.4,3.1-11.4,3.1c-8.8,3.7-15.8,10.1-20.8,18.7c-2.2,4-3.9,8.1-5.2,12.4l-5.3,17.9l-3.4-8L78.8,3.9h-6.2l33.2,76.7
	L115.4,50.2z M126.6,49.3c0.2-0.7,0.4-1.3,0.7-2c0,0,0.4-1.1,0.4-1.1c2.4-6.1,6.8-11.3,12.7-14.7c4.4-2.5,9.2-3.8,14.2-3.8
	c10.2,0,19.5,5.5,24.6,14.4c2.6,4.5,3.8,9.3,3.8,14.5c0,10.2-5.3,19.7-14.1,24.8c-4.3,2.6-9.3,3.8-14.5,3.8
	c-10.9,0-20.1-5.4-25.2-14.4c-1.1-1.9-2-3.9-2.6-6l-2.7,8.6c3.1,5.5,7.6,10.2,13.1,13.4c5.3,3,11.2,4.6,17.4,4.6
	c12.6,0,24-6.9,29.9-17.4c2.9-5.3,4.3-11,4.3-17.4c0-12.9-6.2-23.8-16.9-30c-3.7-2.2-7.7-3.6-12-4.2v0c-1-0.1-2-0.2-2.9-0.3
	c-0.1,0-0.2,0-0.3,0c-0.6,0-1.2-0.1-1.8-0.1c0,0-0.1,0-0.1,0c-0.1,0-0.1,0-0.2,0c-1.5,0-3,0.1-4.4,0.3c0,0-0.1,0-0.1,0
	c-6.9,0.8-13.1,3.5-18.2,7.8c0,0-5.3,5.6-7.2,9c-2.6,4.4-4.8,13.2-4.8,13.2l-3.7,12.2l-9.3,30.2L67.3,3.9h-4.2L46.3,43.2l2.5,8.7
	l16.5-38.3l5.1,11.7l35.8,82.9l1.4,3.2l17-55.7L126.6,49.3z M60.5,63.3l-3,7.4l-15.2,36.4h-2.9l-1.3-4.3L14.8,27.8L8.4,6.4h5
	l24.9,81.2l2.6,8.6h1l3-7.5l-3-9.3L17.6,0.8H0.5l34.5,111.8h11L60.6,78l3-7.3l3.8-11l-3-7.2L60.5,63.3z M48.2,64.7L28.8,0.8h-6.1
	l24.8,81.5l17.6-42l31.6,72.5h6.2L65.1,25.8L48.2,64.7z"/>
<path class="st0" d="M362.2,100.8h-24l-2.3-9.7l25.7-30.6h13.9v30h6.3v10.3h-6.3v9.6h-13.3V100.8z M362.2,90.6V76.4l-11.8,14.2
	H362.2z"/>
</svg>
